<mxfile host="app.diagrams.net" agent="Mozilla/5.0 (Windows NT 10.0; Win64; x64) AppleWebKit/537.36 (KHTML, like Gecko) Chrome/129.0.0.0 Safari/537.36" version="24.7.17">
  <diagram name="Page-1" id="b_cYoyMaVfNr6R1rxi36">
    <mxGraphModel dx="1258" dy="1195" grid="0" gridSize="10" guides="1" tooltips="1" connect="1" arrows="1" fold="1" page="0" pageScale="1" pageWidth="850" pageHeight="1100" math="0" shadow="0">
      <root>
        <mxCell id="0" />
        <mxCell id="1" parent="0" />
        <mxCell id="Ggf2LO7gtdL0LAkZKpcG-13" style="edgeStyle=none;curved=1;rounded=0;orthogonalLoop=1;jettySize=auto;html=1;entryX=0;entryY=0.5;entryDx=0;entryDy=0;fontSize=12;startSize=8;endSize=8;" edge="1" parent="1" source="Ggf2LO7gtdL0LAkZKpcG-1" target="Ggf2LO7gtdL0LAkZKpcG-2">
          <mxGeometry relative="1" as="geometry" />
        </mxCell>
        <mxCell id="Ggf2LO7gtdL0LAkZKpcG-26" style="edgeStyle=none;curved=1;rounded=0;orthogonalLoop=1;jettySize=auto;html=1;entryX=0.5;entryY=1;entryDx=0;entryDy=0;fontSize=12;startSize=8;endSize=8;" edge="1" parent="1" source="Ggf2LO7gtdL0LAkZKpcG-1" target="Ggf2LO7gtdL0LAkZKpcG-25">
          <mxGeometry relative="1" as="geometry" />
        </mxCell>
        <mxCell id="Ggf2LO7gtdL0LAkZKpcG-1" value="7&lt;div&gt;.1.&lt;/div&gt;" style="ellipse;whiteSpace=wrap;html=1;fillColor=#ffcccc;strokeColor=#36393d;" vertex="1" parent="1">
          <mxGeometry x="-296" y="-126" width="166" height="106" as="geometry" />
        </mxCell>
        <mxCell id="Ggf2LO7gtdL0LAkZKpcG-14" style="edgeStyle=none;curved=1;rounded=0;orthogonalLoop=1;jettySize=auto;html=1;entryX=0;entryY=0.5;entryDx=0;entryDy=0;fontSize=12;startSize=8;endSize=8;" edge="1" parent="1" source="Ggf2LO7gtdL0LAkZKpcG-2" target="Ggf2LO7gtdL0LAkZKpcG-3">
          <mxGeometry relative="1" as="geometry" />
        </mxCell>
        <mxCell id="Ggf2LO7gtdL0LAkZKpcG-2" value="7&lt;div&gt;.2.&lt;/div&gt;" style="ellipse;whiteSpace=wrap;html=1;fillColor=#ffcccc;strokeColor=#36393d;" vertex="1" parent="1">
          <mxGeometry x="81" y="-151" width="166" height="106" as="geometry" />
        </mxCell>
        <mxCell id="Ggf2LO7gtdL0LAkZKpcG-15" style="edgeStyle=none;curved=1;rounded=0;orthogonalLoop=1;jettySize=auto;html=1;entryX=0;entryY=0.5;entryDx=0;entryDy=0;fontSize=12;startSize=8;endSize=8;" edge="1" parent="1" source="Ggf2LO7gtdL0LAkZKpcG-3" target="Ggf2LO7gtdL0LAkZKpcG-4">
          <mxGeometry relative="1" as="geometry" />
        </mxCell>
        <mxCell id="Ggf2LO7gtdL0LAkZKpcG-3" value="7&lt;div&gt;.3.&lt;/div&gt;" style="ellipse;whiteSpace=wrap;html=1;fillColor=#ffcccc;strokeColor=#36393d;" vertex="1" parent="1">
          <mxGeometry x="399" y="-172" width="166" height="106" as="geometry" />
        </mxCell>
        <mxCell id="Ggf2LO7gtdL0LAkZKpcG-4" value="&lt;div&gt;14&lt;/div&gt;&lt;div&gt;.4.&lt;/div&gt;" style="ellipse;whiteSpace=wrap;html=1;fillColor=#ffcccc;strokeColor=#36393d;" vertex="1" parent="1">
          <mxGeometry x="691" y="-169" width="166" height="106" as="geometry" />
        </mxCell>
        <mxCell id="Ggf2LO7gtdL0LAkZKpcG-16" style="edgeStyle=none;curved=1;rounded=0;orthogonalLoop=1;jettySize=auto;html=1;entryX=0.5;entryY=1;entryDx=0;entryDy=0;fontSize=12;startSize=8;endSize=8;" edge="1" parent="1" source="Ggf2LO7gtdL0LAkZKpcG-5" target="Ggf2LO7gtdL0LAkZKpcG-3">
          <mxGeometry relative="1" as="geometry" />
        </mxCell>
        <mxCell id="Ggf2LO7gtdL0LAkZKpcG-5" value="&lt;div&gt;14&lt;/div&gt;&lt;div&gt;.5.&lt;/div&gt;" style="ellipse;whiteSpace=wrap;html=1;fillColor=#ffcccc;strokeColor=#36393d;" vertex="1" parent="1">
          <mxGeometry x="394" y="49" width="166" height="106" as="geometry" />
        </mxCell>
        <mxCell id="Ggf2LO7gtdL0LAkZKpcG-6" value="7&lt;div&gt;.6.&lt;/div&gt;" style="ellipse;whiteSpace=wrap;html=1;" vertex="1" parent="1">
          <mxGeometry x="-74" y="226" width="166" height="106" as="geometry" />
        </mxCell>
        <mxCell id="Ggf2LO7gtdL0LAkZKpcG-17" style="edgeStyle=none;curved=1;rounded=0;orthogonalLoop=1;jettySize=auto;html=1;fontSize=12;startSize=8;endSize=8;" edge="1" parent="1" source="Ggf2LO7gtdL0LAkZKpcG-7" target="Ggf2LO7gtdL0LAkZKpcG-1">
          <mxGeometry relative="1" as="geometry" />
        </mxCell>
        <mxCell id="Ggf2LO7gtdL0LAkZKpcG-7" value="7&lt;div&gt;.7.&lt;/div&gt;" style="ellipse;whiteSpace=wrap;html=1;" vertex="1" parent="1">
          <mxGeometry x="96" y="69" width="166" height="106" as="geometry" />
        </mxCell>
        <mxCell id="Ggf2LO7gtdL0LAkZKpcG-8" value="7&lt;div&gt;.8.&lt;/div&gt;" style="ellipse;whiteSpace=wrap;html=1;" vertex="1" parent="1">
          <mxGeometry x="-344" y="270" width="166" height="106" as="geometry" />
        </mxCell>
        <mxCell id="Ggf2LO7gtdL0LAkZKpcG-22" style="edgeStyle=none;curved=1;rounded=0;orthogonalLoop=1;jettySize=auto;html=1;entryX=0;entryY=1;entryDx=0;entryDy=0;fontSize=12;startSize=8;endSize=8;" edge="1" parent="1" source="Ggf2LO7gtdL0LAkZKpcG-9" target="Ggf2LO7gtdL0LAkZKpcG-11">
          <mxGeometry relative="1" as="geometry" />
        </mxCell>
        <mxCell id="Ggf2LO7gtdL0LAkZKpcG-9" value="7&lt;div&gt;.10.&lt;/div&gt;" style="ellipse;whiteSpace=wrap;html=1;fillColor=#ffcccc;strokeColor=#36393d;" vertex="1" parent="1">
          <mxGeometry x="601" y="263" width="166" height="106" as="geometry" />
        </mxCell>
        <mxCell id="Ggf2LO7gtdL0LAkZKpcG-23" style="edgeStyle=none;curved=1;rounded=0;orthogonalLoop=1;jettySize=auto;html=1;entryX=0.5;entryY=1;entryDx=0;entryDy=0;fontSize=12;startSize=8;endSize=8;" edge="1" parent="1" source="Ggf2LO7gtdL0LAkZKpcG-10" target="Ggf2LO7gtdL0LAkZKpcG-9">
          <mxGeometry relative="1" as="geometry" />
        </mxCell>
        <mxCell id="Ggf2LO7gtdL0LAkZKpcG-24" style="edgeStyle=none;curved=1;rounded=0;orthogonalLoop=1;jettySize=auto;html=1;entryX=0;entryY=1;entryDx=0;entryDy=0;fontSize=12;startSize=8;endSize=8;" edge="1" parent="1" source="Ggf2LO7gtdL0LAkZKpcG-10" target="Ggf2LO7gtdL0LAkZKpcG-12">
          <mxGeometry relative="1" as="geometry" />
        </mxCell>
        <mxCell id="Ggf2LO7gtdL0LAkZKpcG-10" value="7&lt;div&gt;.11.&lt;/div&gt;" style="ellipse;whiteSpace=wrap;html=1;fillColor=#ffcccc;strokeColor=#36393d;" vertex="1" parent="1">
          <mxGeometry x="421" y="486" width="166" height="106" as="geometry" />
        </mxCell>
        <mxCell id="Ggf2LO7gtdL0LAkZKpcG-20" style="edgeStyle=none;curved=1;rounded=0;orthogonalLoop=1;jettySize=auto;html=1;entryX=0.5;entryY=1;entryDx=0;entryDy=0;fontSize=12;startSize=8;endSize=8;" edge="1" parent="1" source="Ggf2LO7gtdL0LAkZKpcG-11" target="Ggf2LO7gtdL0LAkZKpcG-4">
          <mxGeometry relative="1" as="geometry" />
        </mxCell>
        <mxCell id="Ggf2LO7gtdL0LAkZKpcG-21" style="edgeStyle=none;curved=1;rounded=0;orthogonalLoop=1;jettySize=auto;html=1;entryX=1;entryY=0.5;entryDx=0;entryDy=0;fontSize=12;startSize=8;endSize=8;" edge="1" parent="1" source="Ggf2LO7gtdL0LAkZKpcG-11" target="Ggf2LO7gtdL0LAkZKpcG-5">
          <mxGeometry relative="1" as="geometry" />
        </mxCell>
        <mxCell id="Ggf2LO7gtdL0LAkZKpcG-11" value="7&lt;div&gt;.9.&lt;/div&gt;" style="ellipse;whiteSpace=wrap;html=1;fillColor=#ffcccc;strokeColor=#36393d;" vertex="1" parent="1">
          <mxGeometry x="762" y="57" width="166" height="106" as="geometry" />
        </mxCell>
        <mxCell id="Ggf2LO7gtdL0LAkZKpcG-141" style="edgeStyle=none;curved=1;rounded=0;orthogonalLoop=1;jettySize=auto;html=1;entryX=0.5;entryY=0;entryDx=0;entryDy=0;fontSize=12;startSize=8;endSize=8;" edge="1" parent="1" source="Ggf2LO7gtdL0LAkZKpcG-12" target="Ggf2LO7gtdL0LAkZKpcG-133">
          <mxGeometry relative="1" as="geometry" />
        </mxCell>
        <mxCell id="Ggf2LO7gtdL0LAkZKpcG-12" value="7&lt;div&gt;.12.&lt;/div&gt;" style="ellipse;whiteSpace=wrap;html=1;fillColor=#ffcccc;strokeColor=#36393d;" vertex="1" parent="1">
          <mxGeometry x="848" y="454" width="166" height="106" as="geometry" />
        </mxCell>
        <mxCell id="Ggf2LO7gtdL0LAkZKpcG-18" style="edgeStyle=none;curved=1;rounded=0;orthogonalLoop=1;jettySize=auto;html=1;entryX=0.771;entryY=0.972;entryDx=0;entryDy=0;entryPerimeter=0;fontSize=12;startSize=8;endSize=8;" edge="1" parent="1" source="Ggf2LO7gtdL0LAkZKpcG-6" target="Ggf2LO7gtdL0LAkZKpcG-1">
          <mxGeometry relative="1" as="geometry" />
        </mxCell>
        <mxCell id="Ggf2LO7gtdL0LAkZKpcG-19" style="edgeStyle=none;curved=1;rounded=0;orthogonalLoop=1;jettySize=auto;html=1;entryX=0.464;entryY=0.972;entryDx=0;entryDy=0;entryPerimeter=0;fontSize=12;startSize=8;endSize=8;" edge="1" parent="1" source="Ggf2LO7gtdL0LAkZKpcG-8" target="Ggf2LO7gtdL0LAkZKpcG-1">
          <mxGeometry relative="1" as="geometry" />
        </mxCell>
        <mxCell id="Ggf2LO7gtdL0LAkZKpcG-25" value="INICIO" style="ellipse;whiteSpace=wrap;html=1;fillColor=#ffcccc;strokeColor=#36393d;" vertex="1" parent="1">
          <mxGeometry x="-254" y="-346" width="120" height="80" as="geometry" />
        </mxCell>
        <mxCell id="Ggf2LO7gtdL0LAkZKpcG-33" value="" style="group" vertex="1" connectable="0" parent="1">
          <mxGeometry x="-136" y="-374" width="88" height="88" as="geometry" />
        </mxCell>
        <mxCell id="Ggf2LO7gtdL0LAkZKpcG-27" value="" style="endArrow=none;html=1;rounded=0;fontSize=12;startSize=8;endSize=8;curved=1;" edge="1" parent="Ggf2LO7gtdL0LAkZKpcG-33">
          <mxGeometry width="50" height="50" relative="1" as="geometry">
            <mxPoint x="43" y="88" as="sourcePoint" />
            <mxPoint x="43" as="targetPoint" />
          </mxGeometry>
        </mxCell>
        <mxCell id="Ggf2LO7gtdL0LAkZKpcG-28" value="" style="endArrow=none;html=1;rounded=0;fontSize=12;startSize=8;endSize=8;curved=1;" edge="1" parent="Ggf2LO7gtdL0LAkZKpcG-33">
          <mxGeometry width="50" height="50" relative="1" as="geometry">
            <mxPoint y="40" as="sourcePoint" />
            <mxPoint x="88" y="40" as="targetPoint" />
          </mxGeometry>
        </mxCell>
        <mxCell id="Ggf2LO7gtdL0LAkZKpcG-29" value="0" style="text;html=1;align=center;verticalAlign=middle;whiteSpace=wrap;rounded=0;fontSize=16;" vertex="1" parent="Ggf2LO7gtdL0LAkZKpcG-33">
          <mxGeometry width="42" height="39" as="geometry" />
        </mxCell>
        <mxCell id="Ggf2LO7gtdL0LAkZKpcG-30" value="0" style="text;html=1;align=center;verticalAlign=middle;whiteSpace=wrap;rounded=0;fontSize=16;" vertex="1" parent="Ggf2LO7gtdL0LAkZKpcG-33">
          <mxGeometry x="44" width="42" height="39" as="geometry" />
        </mxCell>
        <mxCell id="Ggf2LO7gtdL0LAkZKpcG-31" value="0" style="text;html=1;align=center;verticalAlign=middle;whiteSpace=wrap;rounded=0;fontSize=16;" vertex="1" parent="Ggf2LO7gtdL0LAkZKpcG-33">
          <mxGeometry x="44" y="41" width="42" height="39" as="geometry" />
        </mxCell>
        <mxCell id="Ggf2LO7gtdL0LAkZKpcG-32" value="0" style="text;html=1;align=center;verticalAlign=middle;whiteSpace=wrap;rounded=0;fontSize=16;" vertex="1" parent="Ggf2LO7gtdL0LAkZKpcG-33">
          <mxGeometry y="41" width="42" height="39" as="geometry" />
        </mxCell>
        <mxCell id="Ggf2LO7gtdL0LAkZKpcG-34" value="" style="group" vertex="1" connectable="0" parent="1">
          <mxGeometry x="-171" y="-208" width="88" height="88" as="geometry" />
        </mxCell>
        <mxCell id="Ggf2LO7gtdL0LAkZKpcG-35" value="" style="endArrow=none;html=1;rounded=0;fontSize=12;startSize=8;endSize=8;curved=1;" edge="1" parent="Ggf2LO7gtdL0LAkZKpcG-34">
          <mxGeometry width="50" height="50" relative="1" as="geometry">
            <mxPoint x="43" y="88" as="sourcePoint" />
            <mxPoint x="43" as="targetPoint" />
          </mxGeometry>
        </mxCell>
        <mxCell id="Ggf2LO7gtdL0LAkZKpcG-36" value="" style="endArrow=none;html=1;rounded=0;fontSize=12;startSize=8;endSize=8;curved=1;" edge="1" parent="Ggf2LO7gtdL0LAkZKpcG-34">
          <mxGeometry width="50" height="50" relative="1" as="geometry">
            <mxPoint y="40" as="sourcePoint" />
            <mxPoint x="88" y="40" as="targetPoint" />
          </mxGeometry>
        </mxCell>
        <mxCell id="Ggf2LO7gtdL0LAkZKpcG-37" value="0" style="text;html=1;align=center;verticalAlign=middle;whiteSpace=wrap;rounded=0;fontSize=16;" vertex="1" parent="Ggf2LO7gtdL0LAkZKpcG-34">
          <mxGeometry width="42" height="39" as="geometry" />
        </mxCell>
        <mxCell id="Ggf2LO7gtdL0LAkZKpcG-38" value="7" style="text;html=1;align=center;verticalAlign=middle;whiteSpace=wrap;rounded=0;fontSize=16;" vertex="1" parent="Ggf2LO7gtdL0LAkZKpcG-34">
          <mxGeometry x="44" width="42" height="39" as="geometry" />
        </mxCell>
        <mxCell id="Ggf2LO7gtdL0LAkZKpcG-39" value="7" style="text;html=1;align=center;verticalAlign=middle;whiteSpace=wrap;rounded=0;fontSize=16;" vertex="1" parent="Ggf2LO7gtdL0LAkZKpcG-34">
          <mxGeometry x="44" y="41" width="42" height="39" as="geometry" />
        </mxCell>
        <mxCell id="Ggf2LO7gtdL0LAkZKpcG-40" value="0" style="text;html=1;align=center;verticalAlign=middle;whiteSpace=wrap;rounded=0;fontSize=16;" vertex="1" parent="Ggf2LO7gtdL0LAkZKpcG-34">
          <mxGeometry y="41" width="42" height="39" as="geometry" />
        </mxCell>
        <mxCell id="Ggf2LO7gtdL0LAkZKpcG-42" value="" style="group" vertex="1" connectable="0" parent="1">
          <mxGeometry x="-218" y="188" width="88" height="88" as="geometry" />
        </mxCell>
        <mxCell id="Ggf2LO7gtdL0LAkZKpcG-43" value="" style="endArrow=none;html=1;rounded=0;fontSize=12;startSize=8;endSize=8;curved=1;" edge="1" parent="Ggf2LO7gtdL0LAkZKpcG-42">
          <mxGeometry width="50" height="50" relative="1" as="geometry">
            <mxPoint x="43" y="88" as="sourcePoint" />
            <mxPoint x="43" as="targetPoint" />
          </mxGeometry>
        </mxCell>
        <mxCell id="Ggf2LO7gtdL0LAkZKpcG-44" value="" style="endArrow=none;html=1;rounded=0;fontSize=12;startSize=8;endSize=8;curved=1;" edge="1" parent="Ggf2LO7gtdL0LAkZKpcG-42">
          <mxGeometry width="50" height="50" relative="1" as="geometry">
            <mxPoint y="40" as="sourcePoint" />
            <mxPoint x="88" y="40" as="targetPoint" />
          </mxGeometry>
        </mxCell>
        <mxCell id="Ggf2LO7gtdL0LAkZKpcG-45" value="7" style="text;html=1;align=center;verticalAlign=middle;whiteSpace=wrap;rounded=0;fontSize=16;" vertex="1" parent="Ggf2LO7gtdL0LAkZKpcG-42">
          <mxGeometry width="42" height="39" as="geometry" />
        </mxCell>
        <mxCell id="Ggf2LO7gtdL0LAkZKpcG-46" value="14" style="text;html=1;align=center;verticalAlign=middle;whiteSpace=wrap;rounded=0;fontSize=16;" vertex="1" parent="Ggf2LO7gtdL0LAkZKpcG-42">
          <mxGeometry x="44" width="42" height="39" as="geometry" />
        </mxCell>
        <mxCell id="Ggf2LO7gtdL0LAkZKpcG-47" value="7" style="text;html=1;align=center;verticalAlign=middle;whiteSpace=wrap;rounded=0;fontSize=16;" vertex="1" parent="Ggf2LO7gtdL0LAkZKpcG-42">
          <mxGeometry x="44" y="41" width="42" height="39" as="geometry" />
        </mxCell>
        <mxCell id="Ggf2LO7gtdL0LAkZKpcG-48" value="0" style="text;html=1;align=center;verticalAlign=middle;whiteSpace=wrap;rounded=0;fontSize=16;" vertex="1" parent="Ggf2LO7gtdL0LAkZKpcG-42">
          <mxGeometry y="41" width="42" height="39" as="geometry" />
        </mxCell>
        <mxCell id="Ggf2LO7gtdL0LAkZKpcG-57" value="" style="group" vertex="1" connectable="0" parent="1">
          <mxGeometry x="-23" y="141" width="88" height="88" as="geometry" />
        </mxCell>
        <mxCell id="Ggf2LO7gtdL0LAkZKpcG-58" value="" style="endArrow=none;html=1;rounded=0;fontSize=12;startSize=8;endSize=8;curved=1;" edge="1" parent="Ggf2LO7gtdL0LAkZKpcG-57">
          <mxGeometry width="50" height="50" relative="1" as="geometry">
            <mxPoint x="43" y="88" as="sourcePoint" />
            <mxPoint x="43" as="targetPoint" />
          </mxGeometry>
        </mxCell>
        <mxCell id="Ggf2LO7gtdL0LAkZKpcG-59" value="" style="endArrow=none;html=1;rounded=0;fontSize=12;startSize=8;endSize=8;curved=1;" edge="1" parent="Ggf2LO7gtdL0LAkZKpcG-57">
          <mxGeometry width="50" height="50" relative="1" as="geometry">
            <mxPoint y="40" as="sourcePoint" />
            <mxPoint x="88" y="40" as="targetPoint" />
          </mxGeometry>
        </mxCell>
        <mxCell id="Ggf2LO7gtdL0LAkZKpcG-60" value="7" style="text;html=1;align=center;verticalAlign=middle;whiteSpace=wrap;rounded=0;fontSize=16;" vertex="1" parent="Ggf2LO7gtdL0LAkZKpcG-57">
          <mxGeometry width="42" height="39" as="geometry" />
        </mxCell>
        <mxCell id="Ggf2LO7gtdL0LAkZKpcG-61" value="14" style="text;html=1;align=center;verticalAlign=middle;whiteSpace=wrap;rounded=0;fontSize=16;" vertex="1" parent="Ggf2LO7gtdL0LAkZKpcG-57">
          <mxGeometry x="44" width="42" height="39" as="geometry" />
        </mxCell>
        <mxCell id="Ggf2LO7gtdL0LAkZKpcG-62" value="7" style="text;html=1;align=center;verticalAlign=middle;whiteSpace=wrap;rounded=0;fontSize=16;" vertex="1" parent="Ggf2LO7gtdL0LAkZKpcG-57">
          <mxGeometry x="44" y="41" width="42" height="39" as="geometry" />
        </mxCell>
        <mxCell id="Ggf2LO7gtdL0LAkZKpcG-63" value="0" style="text;html=1;align=center;verticalAlign=middle;whiteSpace=wrap;rounded=0;fontSize=16;" vertex="1" parent="Ggf2LO7gtdL0LAkZKpcG-57">
          <mxGeometry y="41" width="42" height="39" as="geometry" />
        </mxCell>
        <mxCell id="Ggf2LO7gtdL0LAkZKpcG-64" value="" style="group" vertex="1" connectable="0" parent="1">
          <mxGeometry x="189" y="164" width="124" height="88" as="geometry" />
        </mxCell>
        <mxCell id="Ggf2LO7gtdL0LAkZKpcG-65" value="" style="endArrow=none;html=1;rounded=0;fontSize=12;startSize=8;endSize=8;curved=1;" edge="1" parent="Ggf2LO7gtdL0LAkZKpcG-64">
          <mxGeometry width="50" height="50" relative="1" as="geometry">
            <mxPoint x="43" y="88" as="sourcePoint" />
            <mxPoint x="43" as="targetPoint" />
          </mxGeometry>
        </mxCell>
        <mxCell id="Ggf2LO7gtdL0LAkZKpcG-66" value="" style="endArrow=none;html=1;rounded=0;fontSize=12;startSize=8;endSize=8;curved=1;" edge="1" parent="Ggf2LO7gtdL0LAkZKpcG-64">
          <mxGeometry width="50" height="50" relative="1" as="geometry">
            <mxPoint y="40" as="sourcePoint" />
            <mxPoint x="88" y="40" as="targetPoint" />
          </mxGeometry>
        </mxCell>
        <mxCell id="Ggf2LO7gtdL0LAkZKpcG-67" value="7" style="text;html=1;align=center;verticalAlign=middle;whiteSpace=wrap;rounded=0;fontSize=16;" vertex="1" parent="Ggf2LO7gtdL0LAkZKpcG-64">
          <mxGeometry width="42" height="39" as="geometry" />
        </mxCell>
        <mxCell id="Ggf2LO7gtdL0LAkZKpcG-68" value="14" style="text;html=1;align=center;verticalAlign=middle;whiteSpace=wrap;rounded=0;fontSize=16;" vertex="1" parent="Ggf2LO7gtdL0LAkZKpcG-64">
          <mxGeometry x="44" width="42" height="39" as="geometry" />
        </mxCell>
        <mxCell id="Ggf2LO7gtdL0LAkZKpcG-69" value="7" style="text;html=1;align=center;verticalAlign=middle;whiteSpace=wrap;rounded=0;fontSize=16;" vertex="1" parent="Ggf2LO7gtdL0LAkZKpcG-64">
          <mxGeometry x="44" y="41" width="42" height="39" as="geometry" />
        </mxCell>
        <mxCell id="Ggf2LO7gtdL0LAkZKpcG-70" value="0" style="text;html=1;align=center;verticalAlign=middle;whiteSpace=wrap;rounded=0;fontSize=16;" vertex="1" parent="Ggf2LO7gtdL0LAkZKpcG-64">
          <mxGeometry y="41" width="42" height="39" as="geometry" />
        </mxCell>
        <mxCell id="Ggf2LO7gtdL0LAkZKpcG-145" value="H =7" style="text;html=1;align=center;verticalAlign=middle;resizable=0;points=[];autosize=1;strokeColor=none;fillColor=none;fontSize=16;" vertex="1" parent="Ggf2LO7gtdL0LAkZKpcG-64">
          <mxGeometry x="72" y="-23" width="52" height="31" as="geometry" />
        </mxCell>
        <mxCell id="Ggf2LO7gtdL0LAkZKpcG-72" value="" style="group" vertex="1" connectable="0" parent="1">
          <mxGeometry x="148" y="-240" width="88" height="88" as="geometry" />
        </mxCell>
        <mxCell id="Ggf2LO7gtdL0LAkZKpcG-73" value="" style="endArrow=none;html=1;rounded=0;fontSize=12;startSize=8;endSize=8;curved=1;" edge="1" parent="Ggf2LO7gtdL0LAkZKpcG-72">
          <mxGeometry width="50" height="50" relative="1" as="geometry">
            <mxPoint x="43" y="88" as="sourcePoint" />
            <mxPoint x="43" as="targetPoint" />
          </mxGeometry>
        </mxCell>
        <mxCell id="Ggf2LO7gtdL0LAkZKpcG-74" value="" style="endArrow=none;html=1;rounded=0;fontSize=12;startSize=8;endSize=8;curved=1;" edge="1" parent="Ggf2LO7gtdL0LAkZKpcG-72">
          <mxGeometry width="50" height="50" relative="1" as="geometry">
            <mxPoint y="40" as="sourcePoint" />
            <mxPoint x="88" y="40" as="targetPoint" />
          </mxGeometry>
        </mxCell>
        <mxCell id="Ggf2LO7gtdL0LAkZKpcG-75" value="7" style="text;html=1;align=center;verticalAlign=middle;whiteSpace=wrap;rounded=0;fontSize=16;" vertex="1" parent="Ggf2LO7gtdL0LAkZKpcG-72">
          <mxGeometry width="42" height="39" as="geometry" />
        </mxCell>
        <mxCell id="Ggf2LO7gtdL0LAkZKpcG-76" value="14" style="text;html=1;align=center;verticalAlign=middle;whiteSpace=wrap;rounded=0;fontSize=16;" vertex="1" parent="Ggf2LO7gtdL0LAkZKpcG-72">
          <mxGeometry x="44" width="42" height="39" as="geometry" />
        </mxCell>
        <mxCell id="Ggf2LO7gtdL0LAkZKpcG-77" value="14" style="text;html=1;align=center;verticalAlign=middle;whiteSpace=wrap;rounded=0;fontSize=16;" vertex="1" parent="Ggf2LO7gtdL0LAkZKpcG-72">
          <mxGeometry x="44" y="41" width="42" height="39" as="geometry" />
        </mxCell>
        <mxCell id="Ggf2LO7gtdL0LAkZKpcG-78" value="7" style="text;html=1;align=center;verticalAlign=middle;whiteSpace=wrap;rounded=0;fontSize=16;" vertex="1" parent="Ggf2LO7gtdL0LAkZKpcG-72">
          <mxGeometry y="41" width="42" height="39" as="geometry" />
        </mxCell>
        <mxCell id="Ggf2LO7gtdL0LAkZKpcG-79" value="" style="group" vertex="1" connectable="0" parent="1">
          <mxGeometry x="472" y="-255" width="88" height="88" as="geometry" />
        </mxCell>
        <mxCell id="Ggf2LO7gtdL0LAkZKpcG-80" value="" style="endArrow=none;html=1;rounded=0;fontSize=12;startSize=8;endSize=8;curved=1;" edge="1" parent="Ggf2LO7gtdL0LAkZKpcG-79">
          <mxGeometry width="50" height="50" relative="1" as="geometry">
            <mxPoint x="43" y="88" as="sourcePoint" />
            <mxPoint x="43" as="targetPoint" />
          </mxGeometry>
        </mxCell>
        <mxCell id="Ggf2LO7gtdL0LAkZKpcG-81" value="" style="endArrow=none;html=1;rounded=0;fontSize=12;startSize=8;endSize=8;curved=1;" edge="1" parent="Ggf2LO7gtdL0LAkZKpcG-79">
          <mxGeometry width="50" height="50" relative="1" as="geometry">
            <mxPoint y="40" as="sourcePoint" />
            <mxPoint x="88" y="40" as="targetPoint" />
          </mxGeometry>
        </mxCell>
        <mxCell id="Ggf2LO7gtdL0LAkZKpcG-82" value="14" style="text;html=1;align=center;verticalAlign=middle;whiteSpace=wrap;rounded=0;fontSize=16;" vertex="1" parent="Ggf2LO7gtdL0LAkZKpcG-79">
          <mxGeometry width="42" height="39" as="geometry" />
        </mxCell>
        <mxCell id="Ggf2LO7gtdL0LAkZKpcG-83" value="21" style="text;html=1;align=center;verticalAlign=middle;whiteSpace=wrap;rounded=0;fontSize=16;" vertex="1" parent="Ggf2LO7gtdL0LAkZKpcG-79">
          <mxGeometry x="44" width="42" height="39" as="geometry" />
        </mxCell>
        <mxCell id="Ggf2LO7gtdL0LAkZKpcG-84" value="21" style="text;html=1;align=center;verticalAlign=middle;whiteSpace=wrap;rounded=0;fontSize=16;" vertex="1" parent="Ggf2LO7gtdL0LAkZKpcG-79">
          <mxGeometry x="44" y="41" width="42" height="39" as="geometry" />
        </mxCell>
        <mxCell id="Ggf2LO7gtdL0LAkZKpcG-85" value="14" style="text;html=1;align=center;verticalAlign=middle;whiteSpace=wrap;rounded=0;fontSize=16;" vertex="1" parent="Ggf2LO7gtdL0LAkZKpcG-79">
          <mxGeometry y="41" width="42" height="39" as="geometry" />
        </mxCell>
        <mxCell id="Ggf2LO7gtdL0LAkZKpcG-87" value="" style="group" vertex="1" connectable="0" parent="1">
          <mxGeometry x="791" y="-240" width="88" height="88" as="geometry" />
        </mxCell>
        <mxCell id="Ggf2LO7gtdL0LAkZKpcG-88" value="" style="endArrow=none;html=1;rounded=0;fontSize=12;startSize=8;endSize=8;curved=1;" edge="1" parent="Ggf2LO7gtdL0LAkZKpcG-87">
          <mxGeometry width="50" height="50" relative="1" as="geometry">
            <mxPoint x="43" y="88" as="sourcePoint" />
            <mxPoint x="43" as="targetPoint" />
          </mxGeometry>
        </mxCell>
        <mxCell id="Ggf2LO7gtdL0LAkZKpcG-89" value="" style="endArrow=none;html=1;rounded=0;fontSize=12;startSize=8;endSize=8;curved=1;" edge="1" parent="Ggf2LO7gtdL0LAkZKpcG-87">
          <mxGeometry width="50" height="50" relative="1" as="geometry">
            <mxPoint y="40" as="sourcePoint" />
            <mxPoint x="88" y="40" as="targetPoint" />
          </mxGeometry>
        </mxCell>
        <mxCell id="Ggf2LO7gtdL0LAkZKpcG-90" value="21" style="text;html=1;align=center;verticalAlign=middle;whiteSpace=wrap;rounded=0;fontSize=16;" vertex="1" parent="Ggf2LO7gtdL0LAkZKpcG-87">
          <mxGeometry width="42" height="39" as="geometry" />
        </mxCell>
        <mxCell id="Ggf2LO7gtdL0LAkZKpcG-91" value="28" style="text;html=1;align=center;verticalAlign=middle;whiteSpace=wrap;rounded=0;fontSize=16;" vertex="1" parent="Ggf2LO7gtdL0LAkZKpcG-87">
          <mxGeometry x="44" width="42" height="39" as="geometry" />
        </mxCell>
        <mxCell id="Ggf2LO7gtdL0LAkZKpcG-92" value="Text" style="text;html=1;align=center;verticalAlign=middle;whiteSpace=wrap;rounded=0;fontSize=16;" vertex="1" parent="Ggf2LO7gtdL0LAkZKpcG-87">
          <mxGeometry x="44" y="41" width="42" height="39" as="geometry" />
        </mxCell>
        <mxCell id="Ggf2LO7gtdL0LAkZKpcG-93" value="Text" style="text;html=1;align=center;verticalAlign=middle;whiteSpace=wrap;rounded=0;fontSize=16;" vertex="1" parent="Ggf2LO7gtdL0LAkZKpcG-87">
          <mxGeometry y="41" width="42" height="39" as="geometry" />
        </mxCell>
        <mxCell id="Ggf2LO7gtdL0LAkZKpcG-94" value="" style="group" vertex="1" connectable="0" parent="1">
          <mxGeometry x="516" y="-23" width="88" height="88" as="geometry" />
        </mxCell>
        <mxCell id="Ggf2LO7gtdL0LAkZKpcG-95" value="" style="endArrow=none;html=1;rounded=0;fontSize=12;startSize=8;endSize=8;curved=1;" edge="1" parent="Ggf2LO7gtdL0LAkZKpcG-94">
          <mxGeometry width="50" height="50" relative="1" as="geometry">
            <mxPoint x="43" y="88" as="sourcePoint" />
            <mxPoint x="43" as="targetPoint" />
          </mxGeometry>
        </mxCell>
        <mxCell id="Ggf2LO7gtdL0LAkZKpcG-96" value="" style="endArrow=none;html=1;rounded=0;fontSize=12;startSize=8;endSize=8;curved=1;" edge="1" parent="Ggf2LO7gtdL0LAkZKpcG-94">
          <mxGeometry width="50" height="50" relative="1" as="geometry">
            <mxPoint y="40" as="sourcePoint" />
            <mxPoint x="88" y="40" as="targetPoint" />
          </mxGeometry>
        </mxCell>
        <mxCell id="Ggf2LO7gtdL0LAkZKpcG-97" value="21" style="text;html=1;align=center;verticalAlign=middle;whiteSpace=wrap;rounded=0;fontSize=16;" vertex="1" parent="Ggf2LO7gtdL0LAkZKpcG-94">
          <mxGeometry width="42" height="39" as="geometry" />
        </mxCell>
        <mxCell id="Ggf2LO7gtdL0LAkZKpcG-98" value="28" style="text;html=1;align=center;verticalAlign=middle;whiteSpace=wrap;rounded=0;fontSize=16;" vertex="1" parent="Ggf2LO7gtdL0LAkZKpcG-94">
          <mxGeometry x="44" width="42" height="39" as="geometry" />
        </mxCell>
        <mxCell id="Ggf2LO7gtdL0LAkZKpcG-99" value="28" style="text;html=1;align=center;verticalAlign=middle;whiteSpace=wrap;rounded=0;fontSize=16;" vertex="1" parent="Ggf2LO7gtdL0LAkZKpcG-94">
          <mxGeometry x="44" y="41" width="42" height="39" as="geometry" />
        </mxCell>
        <mxCell id="Ggf2LO7gtdL0LAkZKpcG-100" value="21" style="text;html=1;align=center;verticalAlign=middle;whiteSpace=wrap;rounded=0;fontSize=16;" vertex="1" parent="Ggf2LO7gtdL0LAkZKpcG-94">
          <mxGeometry y="41" width="42" height="39" as="geometry" />
        </mxCell>
        <mxCell id="Ggf2LO7gtdL0LAkZKpcG-101" value="" style="group" vertex="1" connectable="0" parent="1">
          <mxGeometry x="887" y="-4" width="88" height="88" as="geometry" />
        </mxCell>
        <mxCell id="Ggf2LO7gtdL0LAkZKpcG-102" value="" style="endArrow=none;html=1;rounded=0;fontSize=12;startSize=8;endSize=8;curved=1;" edge="1" parent="Ggf2LO7gtdL0LAkZKpcG-101">
          <mxGeometry width="50" height="50" relative="1" as="geometry">
            <mxPoint x="43" y="88" as="sourcePoint" />
            <mxPoint x="43" as="targetPoint" />
          </mxGeometry>
        </mxCell>
        <mxCell id="Ggf2LO7gtdL0LAkZKpcG-103" value="" style="endArrow=none;html=1;rounded=0;fontSize=12;startSize=8;endSize=8;curved=1;" edge="1" parent="Ggf2LO7gtdL0LAkZKpcG-101">
          <mxGeometry width="50" height="50" relative="1" as="geometry">
            <mxPoint y="40" as="sourcePoint" />
            <mxPoint x="88" y="40" as="targetPoint" />
          </mxGeometry>
        </mxCell>
        <mxCell id="Ggf2LO7gtdL0LAkZKpcG-104" value="28" style="text;html=1;align=center;verticalAlign=middle;whiteSpace=wrap;rounded=0;fontSize=16;" vertex="1" parent="Ggf2LO7gtdL0LAkZKpcG-101">
          <mxGeometry width="42" height="39" as="geometry" />
        </mxCell>
        <mxCell id="Ggf2LO7gtdL0LAkZKpcG-105" value="35" style="text;html=1;align=center;verticalAlign=middle;whiteSpace=wrap;rounded=0;fontSize=16;" vertex="1" parent="Ggf2LO7gtdL0LAkZKpcG-101">
          <mxGeometry x="44" width="42" height="39" as="geometry" />
        </mxCell>
        <mxCell id="Ggf2LO7gtdL0LAkZKpcG-106" value="35" style="text;html=1;align=center;verticalAlign=middle;whiteSpace=wrap;rounded=0;fontSize=16;" vertex="1" parent="Ggf2LO7gtdL0LAkZKpcG-101">
          <mxGeometry x="44" y="41" width="42" height="39" as="geometry" />
        </mxCell>
        <mxCell id="Ggf2LO7gtdL0LAkZKpcG-107" value="28" style="text;html=1;align=center;verticalAlign=middle;whiteSpace=wrap;rounded=0;fontSize=16;" vertex="1" parent="Ggf2LO7gtdL0LAkZKpcG-101">
          <mxGeometry y="41" width="42" height="39" as="geometry" />
        </mxCell>
        <mxCell id="Ggf2LO7gtdL0LAkZKpcG-108" value="" style="group" vertex="1" connectable="0" parent="1">
          <mxGeometry x="745" y="221" width="88" height="88" as="geometry" />
        </mxCell>
        <mxCell id="Ggf2LO7gtdL0LAkZKpcG-109" value="" style="endArrow=none;html=1;rounded=0;fontSize=12;startSize=8;endSize=8;curved=1;" edge="1" parent="Ggf2LO7gtdL0LAkZKpcG-108">
          <mxGeometry width="50" height="50" relative="1" as="geometry">
            <mxPoint x="43" y="88" as="sourcePoint" />
            <mxPoint x="43" as="targetPoint" />
          </mxGeometry>
        </mxCell>
        <mxCell id="Ggf2LO7gtdL0LAkZKpcG-110" value="" style="endArrow=none;html=1;rounded=0;fontSize=12;startSize=8;endSize=8;curved=1;" edge="1" parent="Ggf2LO7gtdL0LAkZKpcG-108">
          <mxGeometry width="50" height="50" relative="1" as="geometry">
            <mxPoint y="40" as="sourcePoint" />
            <mxPoint x="88" y="40" as="targetPoint" />
          </mxGeometry>
        </mxCell>
        <mxCell id="Ggf2LO7gtdL0LAkZKpcG-111" value="35" style="text;html=1;align=center;verticalAlign=middle;whiteSpace=wrap;rounded=0;fontSize=16;" vertex="1" parent="Ggf2LO7gtdL0LAkZKpcG-108">
          <mxGeometry width="42" height="39" as="geometry" />
        </mxCell>
        <mxCell id="Ggf2LO7gtdL0LAkZKpcG-112" value="42" style="text;html=1;align=center;verticalAlign=middle;whiteSpace=wrap;rounded=0;fontSize=16;" vertex="1" parent="Ggf2LO7gtdL0LAkZKpcG-108">
          <mxGeometry x="44" width="42" height="39" as="geometry" />
        </mxCell>
        <mxCell id="Ggf2LO7gtdL0LAkZKpcG-113" value="42" style="text;html=1;align=center;verticalAlign=middle;whiteSpace=wrap;rounded=0;fontSize=16;" vertex="1" parent="Ggf2LO7gtdL0LAkZKpcG-108">
          <mxGeometry x="44" y="41" width="42" height="39" as="geometry" />
        </mxCell>
        <mxCell id="Ggf2LO7gtdL0LAkZKpcG-114" value="35" style="text;html=1;align=center;verticalAlign=middle;whiteSpace=wrap;rounded=0;fontSize=16;" vertex="1" parent="Ggf2LO7gtdL0LAkZKpcG-108">
          <mxGeometry y="41" width="42" height="39" as="geometry" />
        </mxCell>
        <mxCell id="Ggf2LO7gtdL0LAkZKpcG-116" value="" style="group" vertex="1" connectable="0" parent="1">
          <mxGeometry x="430" y="403" width="88" height="88" as="geometry" />
        </mxCell>
        <mxCell id="Ggf2LO7gtdL0LAkZKpcG-117" value="" style="endArrow=none;html=1;rounded=0;fontSize=12;startSize=8;endSize=8;curved=1;" edge="1" parent="Ggf2LO7gtdL0LAkZKpcG-116">
          <mxGeometry width="50" height="50" relative="1" as="geometry">
            <mxPoint x="43" y="88" as="sourcePoint" />
            <mxPoint x="43" as="targetPoint" />
          </mxGeometry>
        </mxCell>
        <mxCell id="Ggf2LO7gtdL0LAkZKpcG-118" value="" style="endArrow=none;html=1;rounded=0;fontSize=12;startSize=8;endSize=8;curved=1;" edge="1" parent="Ggf2LO7gtdL0LAkZKpcG-116">
          <mxGeometry width="50" height="50" relative="1" as="geometry">
            <mxPoint y="40" as="sourcePoint" />
            <mxPoint x="88" y="40" as="targetPoint" />
          </mxGeometry>
        </mxCell>
        <mxCell id="Ggf2LO7gtdL0LAkZKpcG-119" value="42" style="text;html=1;align=center;verticalAlign=middle;whiteSpace=wrap;rounded=0;fontSize=16;" vertex="1" parent="Ggf2LO7gtdL0LAkZKpcG-116">
          <mxGeometry width="42" height="39" as="geometry" />
        </mxCell>
        <mxCell id="Ggf2LO7gtdL0LAkZKpcG-120" value="49" style="text;html=1;align=center;verticalAlign=middle;whiteSpace=wrap;rounded=0;fontSize=16;" vertex="1" parent="Ggf2LO7gtdL0LAkZKpcG-116">
          <mxGeometry x="44" width="42" height="39" as="geometry" />
        </mxCell>
        <mxCell id="Ggf2LO7gtdL0LAkZKpcG-121" value="49" style="text;html=1;align=center;verticalAlign=middle;whiteSpace=wrap;rounded=0;fontSize=16;" vertex="1" parent="Ggf2LO7gtdL0LAkZKpcG-116">
          <mxGeometry x="44" y="41" width="42" height="39" as="geometry" />
        </mxCell>
        <mxCell id="Ggf2LO7gtdL0LAkZKpcG-122" value="42" style="text;html=1;align=center;verticalAlign=middle;whiteSpace=wrap;rounded=0;fontSize=16;" vertex="1" parent="Ggf2LO7gtdL0LAkZKpcG-116">
          <mxGeometry y="41" width="42" height="39" as="geometry" />
        </mxCell>
        <mxCell id="Ggf2LO7gtdL0LAkZKpcG-123" value="" style="group" vertex="1" connectable="0" parent="1">
          <mxGeometry x="885" y="363" width="88" height="88" as="geometry" />
        </mxCell>
        <mxCell id="Ggf2LO7gtdL0LAkZKpcG-124" value="" style="endArrow=none;html=1;rounded=0;fontSize=12;startSize=8;endSize=8;curved=1;" edge="1" parent="Ggf2LO7gtdL0LAkZKpcG-123">
          <mxGeometry width="50" height="50" relative="1" as="geometry">
            <mxPoint x="43" y="88" as="sourcePoint" />
            <mxPoint x="43" as="targetPoint" />
          </mxGeometry>
        </mxCell>
        <mxCell id="Ggf2LO7gtdL0LAkZKpcG-125" value="" style="endArrow=none;html=1;rounded=0;fontSize=12;startSize=8;endSize=8;curved=1;" edge="1" parent="Ggf2LO7gtdL0LAkZKpcG-123">
          <mxGeometry width="50" height="50" relative="1" as="geometry">
            <mxPoint y="40" as="sourcePoint" />
            <mxPoint x="88" y="40" as="targetPoint" />
          </mxGeometry>
        </mxCell>
        <mxCell id="Ggf2LO7gtdL0LAkZKpcG-126" value="49" style="text;html=1;align=center;verticalAlign=middle;whiteSpace=wrap;rounded=0;fontSize=16;" vertex="1" parent="Ggf2LO7gtdL0LAkZKpcG-123">
          <mxGeometry width="42" height="39" as="geometry" />
        </mxCell>
        <mxCell id="Ggf2LO7gtdL0LAkZKpcG-127" value="56" style="text;html=1;align=center;verticalAlign=middle;whiteSpace=wrap;rounded=0;fontSize=16;" vertex="1" parent="Ggf2LO7gtdL0LAkZKpcG-123">
          <mxGeometry x="44" width="42" height="39" as="geometry" />
        </mxCell>
        <mxCell id="Ggf2LO7gtdL0LAkZKpcG-128" value="56" style="text;html=1;align=center;verticalAlign=middle;whiteSpace=wrap;rounded=0;fontSize=16;" vertex="1" parent="Ggf2LO7gtdL0LAkZKpcG-123">
          <mxGeometry x="44" y="41" width="42" height="39" as="geometry" />
        </mxCell>
        <mxCell id="Ggf2LO7gtdL0LAkZKpcG-129" value="49" style="text;html=1;align=center;verticalAlign=middle;whiteSpace=wrap;rounded=0;fontSize=16;" vertex="1" parent="Ggf2LO7gtdL0LAkZKpcG-123">
          <mxGeometry y="41" width="42" height="39" as="geometry" />
        </mxCell>
        <mxCell id="Ggf2LO7gtdL0LAkZKpcG-133" value="FIN" style="ellipse;whiteSpace=wrap;html=1;fillColor=#ffcccc;strokeColor=#36393d;" vertex="1" parent="1">
          <mxGeometry x="965" y="617" width="120" height="80" as="geometry" />
        </mxCell>
        <mxCell id="Ggf2LO7gtdL0LAkZKpcG-134" value="" style="group" vertex="1" connectable="0" parent="1">
          <mxGeometry x="1099" y="600" width="88" height="88" as="geometry" />
        </mxCell>
        <mxCell id="Ggf2LO7gtdL0LAkZKpcG-135" value="" style="endArrow=none;html=1;rounded=0;fontSize=12;startSize=8;endSize=8;curved=1;" edge="1" parent="Ggf2LO7gtdL0LAkZKpcG-134">
          <mxGeometry width="50" height="50" relative="1" as="geometry">
            <mxPoint x="43" y="88" as="sourcePoint" />
            <mxPoint x="43" as="targetPoint" />
          </mxGeometry>
        </mxCell>
        <mxCell id="Ggf2LO7gtdL0LAkZKpcG-136" value="" style="endArrow=none;html=1;rounded=0;fontSize=12;startSize=8;endSize=8;curved=1;" edge="1" parent="Ggf2LO7gtdL0LAkZKpcG-134">
          <mxGeometry width="50" height="50" relative="1" as="geometry">
            <mxPoint y="40" as="sourcePoint" />
            <mxPoint x="88" y="40" as="targetPoint" />
          </mxGeometry>
        </mxCell>
        <mxCell id="Ggf2LO7gtdL0LAkZKpcG-137" value="49" style="text;html=1;align=center;verticalAlign=middle;whiteSpace=wrap;rounded=0;fontSize=16;" vertex="1" parent="Ggf2LO7gtdL0LAkZKpcG-134">
          <mxGeometry width="42" height="39" as="geometry" />
        </mxCell>
        <mxCell id="Ggf2LO7gtdL0LAkZKpcG-138" value="56" style="text;html=1;align=center;verticalAlign=middle;whiteSpace=wrap;rounded=0;fontSize=16;" vertex="1" parent="Ggf2LO7gtdL0LAkZKpcG-134">
          <mxGeometry x="44" width="42" height="39" as="geometry" />
        </mxCell>
        <mxCell id="Ggf2LO7gtdL0LAkZKpcG-139" value="56" style="text;html=1;align=center;verticalAlign=middle;whiteSpace=wrap;rounded=0;fontSize=16;" vertex="1" parent="Ggf2LO7gtdL0LAkZKpcG-134">
          <mxGeometry x="44" y="41" width="42" height="39" as="geometry" />
        </mxCell>
        <mxCell id="Ggf2LO7gtdL0LAkZKpcG-140" value="49" style="text;html=1;align=center;verticalAlign=middle;whiteSpace=wrap;rounded=0;fontSize=16;" vertex="1" parent="Ggf2LO7gtdL0LAkZKpcG-134">
          <mxGeometry y="41" width="42" height="39" as="geometry" />
        </mxCell>
        <mxCell id="Ggf2LO7gtdL0LAkZKpcG-143" value="H =7" style="text;html=1;align=center;verticalAlign=middle;resizable=0;points=[];autosize=1;strokeColor=none;fillColor=none;fontSize=16;" vertex="1" parent="1">
          <mxGeometry x="-195.5" y="150.5" width="52" height="31" as="geometry" />
        </mxCell>
        <mxCell id="Ggf2LO7gtdL0LAkZKpcG-144" value="H =7" style="text;html=1;align=center;verticalAlign=middle;resizable=0;points=[];autosize=1;strokeColor=none;fillColor=none;fontSize=16;" vertex="1" parent="1">
          <mxGeometry x="-25" y="106.5" width="52" height="31" as="geometry" />
        </mxCell>
      </root>
    </mxGraphModel>
  </diagram>
</mxfile>
